<svg height="78.26559015416684" width="369.5454545454545" style="width: 369.545px; height: 78.2656px; position: absolute; top: 50%; left: 50%; transform: translate(-50%, -50%) scale(1); z-index: 0; cursor: pointer; overflow: visible;"><defs id="SvgjsDefs1001"></defs><g id="SvgjsG1007" featurekey="4K7G0D-0" transform="matrix(3.096834905075673,0,0,3.096834905075673,-3.310453402921526,-2.715099033732654)" fill="#ff325d"><g xmlns="http://www.w3.org/2000/svg"><path fill="#ff325d" d="M12.924,4.688c0.026,0.026,0.052,0.052,0.078,0.078C12.976,4.741,12.95,4.715,12.924,4.688L12.924,4.688z"></path><path fill="#ff325d" d="M12.56,2.89C12.69,2.837,12.456,2.916,12.56,2.89L12.56,2.89L12.56,2.89z"></path><path fill="#ff325d" d="M31.539,18.14c0.364,0.209-1.69,2.034-1.872,2.19c-0.832,0.782-1.482,1.512-2.781,1.173   c0.208-1.694,0.39-3.024-0.599-4.483c-0.364-0.548-0.313-1.147-0.676-1.721c-0.521-0.783-0.91-1.564-1.378-2.373   c-0.65-1.147-2.21-2.294-2.548-3.519c-0.39-1.356-1.273-2.582-1.82-3.885c0.78-0.938,1.742-1.382,0.806-2.32   c-0.44-0.443-0.701-0.938-1.247-1.303c-0.469-0.339-1.326-0.365-1.872-0.678c-0.78-0.443-2.444-0.573-3.042,0.313   c-0.598,0.912-1.664,0.417-2.313,1.068c0.234-0.104,0-0.026,0.312-0.104c0,0,0.26,0.183,0.208,0.392   c-0.104-0.053-0.364,0.052-0.468,0.078l-0.156-0.235c0,0.756,0.39,1.539,0.858,2.112c0.442-0.235,1.17,0.104,1.56,0.339   c0.572,0.339,1.17-0.521,1.69,0c-0.442,0.521-2.392,0.547-3.12,0.573c0.156,0.73,2.08,0.417,2.678,1.095   c0.078,1.564-0.468,2.607-0.676,4.119c-0.234,1.747,0.78,2.972,1.092,4.589c0.416,2.085-0.026,4.067,0,6.151   c0.026,1.356-0.546,1.278-1.326,2.19c-0.961,1.095,1.222,1.147,1.742,0.521c0.832-0.99,0.442-1.721,0.91-2.789   c0.234-0.47,0.156-1.095,0.234-1.616c0.078-0.601,0.469-1.069,0.521-1.695c0.025,0.548,0.571,0.939,0.415,1.46   c-0.155,0.678-0.415,1.199-0.441,1.877c-0.078,1.539-0.624,2.503-1.118,3.858c-0.364,0.991,1.196,0.548,1.612,0.443   c0.988-0.209,0.285-0.99,0.546-1.694c0.104-0.313,1.222-3.285,1.248-3.285c0.286,0.208,0.182,1.122,0.363,1.434   c0.156,0.365-0.728,0.601-0.936,0.652l-0.363,1.199c1.04-0.313,2.21-0.86,3.301-0.652c-0.935,0.938-1.039,1.669,0.442,1.669   c0.91,0,2.782-1.096,2.964-2.033c0,0,1.741-0.026,1.924-0.052c0.78-0.157,1.118-0.262,1.561-0.939   C30.161,21.634,32.839,18.923,31.539,18.14L31.539,18.14z M16.2,2.421c-1.638,0.026-0.182-1.121,0.313,0H16.2L16.2,2.421z    M18.487,5.679c-0.26-0.573-1.065-3.597-0.39-3.754c-0.364,0.13,0.025,4.197,1.196,4.171C19.06,6.201,18.669,6.096,18.487,5.679   C18.254,5.184,18.669,6.096,18.487,5.679L18.487,5.679z"></path><path fill="#ff325d" d="M14.12,9.068c0-0.13-0.026-0.678-0.182-0.913c0.052,0.13-0.078,0.365-0.078,0.365   c-0.702,0.338-0.234-0.574,0-0.443c-0.286-0.235-0.754-0.131-1.014-0.366c-0.286-0.26-0.39-0.495-0.78-0.547   c-0.156-0.026-0.572-0.026-0.624-0.208c-0.078-0.26-0.286-0.547-0.468-0.756c-0.13-0.183-0.13-0.391-0.156-0.626   c-0.026-0.052-0.052-0.547-0.182-0.365c-0.312,0.391-0.338,1.095-0.416,1.564c-0.026,0.156-0.026,0.365-0.104,0.521   c-0.104,0.182-0.416,0.6-0.598,0.391c-0.234-0.234-0.521-0.521-0.832-0.6C8.452,7.061,8.01,7.061,8.036,7.374   c0.104,1.381,0.884,2.659,0.39,4.041c-0.156,0.443-0.494,0.521-0.91,0.625c-0.545,0.157-1.092,0.339-1.586,0.626   c-0.494,0.26-0.988,0.574-1.326,1.017c-0.286,0.365-0.494,0.782-0.702,1.2c-0.416,0.938-0.754,1.903-1.066,2.867   c-0.104,0.339-0.208,0.704-0.312,1.043c-0.026,0.052-0.104,0.442-0.156,0.442c0.078,0,0.13-2.241,0.13-2.397   c0.026-0.626,0.078-1.251,0.104-1.878c0.026-0.495,0.052-1.016,0.234-1.512c0.26-0.704,0.676-1.355,1.118-1.955   c0.26-0.339,0.702-0.756,0.832-1.147c0.052-0.183,0.104-0.625-0.13-0.73C4.474,9.538,4.241,9.668,4.11,9.772   c-0.39,0.339-0.728,0.782-1.04,1.199c-0.416,0.574-0.832,1.174-1.144,1.825c-0.338,0.704-0.442,1.33-0.494,2.086   c-0.078,1.017-0.208,2.033-0.286,3.075c-0.052,0.861-0.156,1.825,0.026,2.686c0.182,0.757,0.546,1.461,0.936,2.086   c0.312,0.495,0.572,0.809,1.04,1.173c0.442,0.34,1.014,0.417,1.56,0.496c0.442,0.052,0.858,0.025,1.3,0.025   c0.754,0,1.508,0.078,2.262-0.13c0.806-0.209,1.742-0.234,2.496-0.6c-0.156-0.235-0.338-0.418-0.312-0.73   c0.026-0.286,0.078-0.548,0.13-0.834c0.104-0.729,0.156-1.486,0.156-2.216c0-0.782-0.234-1.435-0.39-2.164   c-0.13-0.6-0.234-1.199-0.286-1.799c0,0,0.026-0.025,0.052-0.025c0.13,0.625,0.26,1.251,0.416,1.876   c0.183,0.704,0.39,1.305,0.416,2.06c0,0.704-0.078,1.435-0.156,2.164c-0.052,0.234-0.104,0.495-0.13,0.756   c-0.052,0.339,0,0.652,0.312,0.782c0.312,0.104,0.858,0,1.17-0.13c0.208-0.104,0.364-0.157,0.338-0.521   c-0.026-0.183-0.052-0.313-0.104-0.521c-0.052-0.209-0.26-0.365-0.39-0.548c-0.078-0.104-0.052-0.339-0.052-0.469   c0.026-0.313,0.052-0.626,0.104-0.938c0.078-0.6,0.156-1.2,0.312-1.773c0.286-1.173,0.468-2.372,0.676-3.545   c0.078-0.548,0.156-0.991,0.052-1.538s-0.208-1.095-0.39-1.643c-0.078-0.261-0.078-0.625,0.052-0.913   c0.078-0.182,0.364-0.339,0.52-0.469c0.26-0.235,0.494-0.443,0.728-0.704C14.25,9.59,14.12,9.408,14.12,9.068L14.12,9.068   L14.12,9.068z M11.884,8.104c0.208-0.079,0.65,0.365,0.65,0.365c-0.182,0.417-0.52,0.521-0.962,0.443   C11.338,8.886,11.702,8.182,11.884,8.104L11.884,8.104z M13.054,14.726c-0.026-0.053-0.078-0.053-0.156-0.053   C12.976,14.673,13.028,14.673,13.054,14.726L13.054,14.726z"></path></g></g><g id="SvgjsG1008" featurekey="wPuqcM-0" transform="matrix(2.6460027299419333,0,0,2.6460027299419333,113.94159834025264,5.0236224288517874)" fill="#ff325d"><path d="M5.68 8.02 c-0.94 0 -1.04 0.78 -1.04 1.18 l0 0.4 l2.32 0 l0 2.36 l-2.32 0 l0 8.04 l-2.86 0 l0 -8.04 l-1.38 0 l0 -2.36 l1.38 0 l0 -0.4 c0 -3.12 2.28 -3.54 3.56 -3.54 c0.98 0 1.92 0.22 2.64 0.68 l-0.98 1.98 c-0.56 -0.22 -0.82 -0.3 -1.32 -0.3 z M13.32 20.16 c-1.98 0 -3.94 -1.3 -3.94 -4.58 l0 -5.98 l2.86 0 l0 5.78 c0 1.7 0.66 2.28 1.76 2.28 c1.52 0 2.42 -1.44 2.64 -2.16 l0 -5.9 l2.86 0 l0 10.4 l-2.86 0 l0 -1.92 c-0.2 0.54 -1.32 2.08 -3.32 2.08 z M28.04 9.44 c0.26 0 0.5 0 0.76 0.06 l0 2.74 c-0.24 -0.06 -0.48 -0.06 -0.68 -0.06 c-1.92 0 -3.5 1.38 -3.68 3.38 l0 4.44 l-2.86 0 l0 -10.4 l2.86 0 l0 2.6 c0.46 -1.58 1.72 -2.76 3.6 -2.76 z M36.5 13.32 l0 2.4 l-6.2 0 l0 -2.4 l6.2 0 z M44.9 9.44 c0.26 0 0.5 0 0.76 0.06 l0 2.74 c-0.24 -0.06 -0.48 -0.06 -0.68 -0.06 c-1.92 0 -3.5 1.38 -3.68 3.38 l0 4.44 l-2.86 0 l0 -10.4 l2.86 0 l0 2.6 c0.46 -1.58 1.72 -2.76 3.6 -2.76 z M50.16 5.859999999999999 l0 2.44 l-2.86 0 l0 -2.44 l2.86 0 z M50.16 9.6 l0 10.4 l-2.86 0 l0 -10.4 l2.86 0 z M57.36 9.42 c2.36 0 5.62 1.78 5 6.38 l-7.56 0 c0.36 1.3 1.44 1.98 2.84 1.98 c1.3 0 1.8 -0.3 2.54 -0.7 l1.58 1.54 c-0.9 0.94 -2.18 1.58 -4.22 1.58 c-2.6 0 -5.64 -1.78 -5.64 -5.36 c0 -3.64 3.1 -5.42 5.46 -5.42 z M57.36 11.86 c-1.04 0 -2.14 0.64 -2.52 1.92 l5 0 c-0.32 -1.28 -1.46 -1.92 -2.48 -1.92 z M70.36 9.44 c1.98 0 3.94 1.3 3.94 4.58 l0 5.98 l-2.86 0 l0 -5.78 c0 -1.7 -0.66 -2.28 -1.76 -2.28 c-1.52 0 -2.42 1.44 -2.64 2.16 l0 5.9 l-2.86 0 l0 -10.4 l2.86 0 l0 1.92 c0.2 -0.54 1.32 -2.08 3.32 -2.08 z M83.91999999999999 5.859999999999999 l2.86 0 l0 5.3 l0 8.84 l-2.86 0 l0 -1.28 c-0.06 0.42 -1.08 1.48 -2.88 1.48 c-2.38 0 -5.14 -1.72 -5.14 -5.42 c0 -3.58 2.76 -5.36 5.14 -5.36 c1.8 0 2.82 1.12 2.88 1.34 l0 -4.9 z M81.43999999999998 17.66 c1.4 0 2.62 -0.96 2.62 -2.88 c0 -1.86 -1.22 -2.82 -2.62 -2.82 c-1.44 0 -2.76 0.98 -2.76 2.82 c0 1.9 1.32 2.88 2.76 2.88 z M93.83999999999999 12.719999999999999 c-0.32 -0.74 -0.78 -1.02 -1.34 -1.02 c-0.52 0 -1 0.32 -1 0.78 c0 0.44 0.28 0.72 0.84 0.92 l1.26 0.46 c1.52 0.54 3 1.1 3 3.12 c0 2.08 -2.06 3.26 -4.16 3.26 c-1.9 0 -3.7 -1.12 -4.12 -2.94 l2.26 -0.7 c0.26 0.7 0.82 1.36 1.86 1.36 c0.74 0 1.3 -0.48 1.3 -1 c0 -0.34 -0.24 -0.64 -0.86 -0.88 l-1.2 -0.42 c-2.04 -0.74 -2.98 -1.8 -2.98 -3.22 c0 -1.88 1.74 -3.02 3.68 -3.02 c1.96 0 3.26 1.06 3.86 2.68 z"></path></g></svg>